<?xml version="1.0" standalone="no"?>
<!DOCTYPE svg PUBLIC "-//W3C//DTD SVG 20010904//EN"
 "http://www.w3.org/TR/2001/REC-SVG-20010904/DTD/svg10.dtd">
<svg version="1.0" xmlns="http://www.w3.org/2000/svg"
 width="800.000000pt" height="800.000000pt" viewBox="0 0 800.000000 800.000000"
 preserveAspectRatio="xMidYMid meet">

<g transform="translate(0.000000,800.000000) scale(0.100000,-0.100000)"
fill="#00e481" stroke="none">
<path d="M1975 6970 c-11 -4 -51 -36 -90 -71 -182 -161 -234 -208 -290 -259
-33 -30 -177 -158 -318 -284 -142 -125 -263 -240 -268 -253 -22 -57 11 -87
120 -110 l83 -18 71 38 c40 21 151 79 247 129 205 106 262 138 272 153 4 5 8
6 8 2 0 -4 45 15 99 43 78 40 101 57 109 79 16 45 72 81 134 88 45 4 58 1 88
-19 46 -31 58 -65 37 -108 -9 -18 -14 -36 -11 -41 3 -5 2 -8 -3 -7 -4 1 -30
-8 -56 -21 -37 -18 -59 -22 -95 -18 -38 4 -55 0 -101 -26 -31 -17 -59 -36 -63
-41 -4 -6 -8 -7 -8 -3 0 4 -40 -13 -90 -39 -49 -26 -87 -51 -83 -57 3 -6 1 -7
-5 -3 -6 4 -57 -17 -114 -46 -56 -29 -138 -72 -182 -94 -61 -32 -76 -43 -61
-47 58 -17 828 -170 875 -174 l55 -4 165 147 c91 81 282 251 425 378 329 292
376 337 369 347 -3 5 0 9 5 9 30 0 -2 75 -38 89 -14 5 -197 44 -406 86 -209
42 -476 96 -594 121 -219 45 -251 49 -286 34z"/>
<path d="M2805 6020 c-71 -65 -129 -124 -127 -130 1 -6 -2 -9 -8 -5 -9 6 -85
-57 -220 -182 -53 -49 -108 -67 -183 -59 -34 3 -201 35 -372 70 -170 36 -311
63 -313 61 -6 -5 87 -345 106 -390 38 -89 128 -154 263 -191 80 -22 302 -25
404 -5 373 70 680 291 702 505 5 45 -3 87 -48 250 -29 108 -57 196 -63 196 -6
-1 -69 -54 -141 -120z"/>
<path d="M3240 6023 c0 -5 14 -61 30 -127 17 -65 30 -129 30 -142 l0 -24 1693
-2 1692 -3 3 -1417 2 -1418 -2265 0 -2265 0 0 1020 0 1020 -49 0 c-44 0 -202
23 -244 36 -17 5 -17 -54 -15 -1258 3 -1256 3 -1263 24 -1308 30 -65 93 -125
159 -149 l56 -21 2333 0 c2076 0 2338 2 2377 15 60 22 112 59 144 105 58 83
55 -1 52 1805 l-2 1660 -27 55 c-32 65 -65 99 -132 134 l-49 26 -1773 0 c-976
0 -1774 -3 -1774 -7z m1259 -3324 c58 -33 76 -65 76 -136 0 -55 -3 -65 -30
-93 -40 -42 -76 -60 -120 -60 -90 0 -161 80 -153 170 11 112 129 175 227 119z"/>
<path d="M1260 5829 c0 -11 98 -383 139 -526 7 -26 4 -44 -15 -90 -13 -32 -24
-65 -24 -74 0 -18 148 -119 165 -113 12 5 85 148 85 167 0 14 -83 87 -98 87
-5 0 -42 123 -82 273 -40 149 -74 273 -75 274 -1 2 -23 6 -48 9 -37 5 -47 4
-47 -7z"/>
<path d="M3440 5337 c-50 -17 -58 -51 -58 -240 1 -198 7 -190 -138 -197 -122
-6 -137 -16 -148 -93 -12 -80 -22 -77 225 -77 l219 0 0 236 0 237 93 -6 c54
-3 129 -17 182 -32 119 -35 396 -151 445 -186 52 -38 77 -89 85 -177 l8 -72
72 0 73 0 7 73 c15 150 45 175 351 298 161 64 256 89 367 96 l87 6 0 -237 0
-236 220 0 220 0 0 59 c0 94 -14 104 -144 111 -147 7 -141 -2 -141 213 0 120
-4 179 -13 194 -27 47 -152 53 -361 17 -138 -24 -411 -123 -433 -158 -4 -6 -8
-7 -8 -3 0 4 -44 -15 -98 -43 -55 -27 -111 -50 -127 -50 -15 0 -84 29 -154 64
-248 126 -392 175 -589 201 -134 18 -194 18 -242 2z"/>
<path d="M3689 4944 c-17 -21 -1 -48 32 -52 37 -5 175 -50 227 -73 26 -12 69
-37 97 -55 73 -49 167 -46 112 3 -78 71 -206 136 -338 173 -89 24 -112 25
-130 4z"/>
<path d="M5005 4931 c-49 -15 -108 -36 -130 -46 -59 -28 -166 -99 -194 -129
l-24 -26 56 0 c31 0 59 4 62 10 9 15 138 88 168 95 15 4 24 12 20 18 -3 5 -2
8 3 5 16 -10 186 38 195 55 15 26 0 47 -35 46 -17 0 -71 -13 -121 -28z"/>
<path d="M5268 4649 c-21 -12 -24 -59 -6 -77 7 -7 27 -12 45 -12 27 0 35 5 43
26 20 52 -32 92 -82 63z"/>
<path d="M2652 4378 l3 -263 40 1 c22 0 100 1 173 2 l132 2 0 40 0 40 -125 0
-126 0 3 73 3 72 103 3 102 3 0 34 0 35 -105 0 -105 0 0 70 0 70 125 0 125 0
0 40 0 40 -175 0 -175 0 2 -262z"/>
<path d="M3360 4380 l0 -259 165 -3 165 -3 0 43 0 42 -115 0 -115 0 0 220 0
220 -50 0 -50 0 0 -260z"/>
<path d="M3845 4492 c-49 -24 -73 -49 -91 -99 -26 -75 -14 -173 30 -221 66
-74 205 -84 273 -20 l22 20 -21 28 c-21 29 -21 29 -47 10 -27 -20 -81 -27
-117 -15 -20 6 -54 53 -54 74 0 7 41 11 126 11 l127 0 -6 58 c-6 71 -26 113
-68 143 -44 31 -121 36 -174 11z m124 -78 c22 -13 26 -22 23 -45 -4 -29 -4
-29 -78 -29 l-73 0 2 29 c1 16 4 28 5 26 2 -2 12 5 23 16 23 23 62 24 98 3z"/>
<path d="M4221 4487 c-41 -22 -70 -57 -71 -84 0 -9 16 -13 49 -13 41 0 51 4
56 20 16 52 108 30 113 -28 l3 -32 -48 0 c-101 0 -166 -38 -178 -104 -19 -101
97 -172 198 -120 21 12 32 13 35 5 2 -6 24 -11 50 -11 l47 0 -3 142 c-4 171
-13 197 -74 227 -59 28 -122 27 -177 -2z m149 -231 c0 -49 -13 -64 -62 -72
-26 -5 -38 -1 -52 15 -39 43 11 98 92 100 19 1 22 -4 22 -43z"/>
<path d="M4684 4485 c-30 -30 -34 -31 -34 -5 0 17 -7 20 -45 20 l-45 0 2 -192
3 -193 35 -3 c53 -5 60 13 60 148 0 133 8 150 73 150 l37 0 0 50 c0 49 -1 50
-30 50 -20 0 -40 -9 -56 -25z"/>
<path d="M4963 4485 c-41 -23 -43 -23 -43 -4 0 16 -7 19 -45 19 l-45 0 0 -190
0 -190 45 0 45 0 1 88 c1 196 9 221 76 222 57 0 63 -15 63 -171 l0 -139 50 0
50 0 0 145 c0 165 -10 204 -59 229 -43 23 -89 20 -138 -9z"/>
<path d="M5578 4485 c-35 -23 -36 -24 -41 -5 -4 16 -14 20 -51 20 l-46 0 0
-190 0 -190 50 0 50 0 0 139 c0 133 1 141 22 155 12 9 37 16 55 16 54 0 63
-25 63 -177 l0 -133 51 0 51 0 -4 153 c-2 97 -9 161 -17 178 -30 61 -119 77
-183 34z"/>
<path d="M5944 4496 c-67 -29 -99 -102 -92 -211 6 -85 31 -135 82 -159 48 -23
108 -21 140 5 l26 20 0 -34 c0 -51 -49 -91 -99 -82 -20 3 -48 15 -62 25 l-27
19 -18 -35 c-19 -35 -19 -35 1 -47 83 -49 195 -46 254 6 44 41 51 74 50 254 0
103 -4 160 -9 148 -6 -14 -9 -4 -9 38 -1 54 -2 57 -26 57 -14 0 -25 -4 -25 -9
0 -19 -32 -20 -63 -1 -37 23 -79 25 -123 6z m139 -84 c14 -12 17 -32 17 -108
0 -82 -2 -95 -19 -104 -34 -18 -80 -12 -106 15 -22 21 -25 33 -25 93 0 59 3
73 24 95 13 14 22 27 20 29 -12 12 74 -7 89 -20z"/>
<path d="M5250 4310 c0 -104 3 -190 8 -191 4 0 26 -1 50 -2 l42 -2 0 193 0
192 -50 0 -50 0 0 -190z"/>
<path d="M3060 4340 l0 -40 100 0 100 0 0 40 0 40 -100 0 -100 0 0 -40z"/>
<path d="M3099 3988 c0 -7 -1 -145 -1 -306 -1 -327 1 -336 61 -352 48 -12
2496 -12 2537 1 18 5 36 20 43 35 7 17 11 122 11 329 l0 305 -75 0 -75 0 0
-265 0 -265 -397 1 -398 1 70 33 c134 65 215 86 360 95 212 14 217 19 223 248
l4 152 -76 0 -77 0 2 -112 2 -113 -49 -8 c-229 -39 -431 -103 -667 -211 -43
-20 -82 -36 -88 -36 -5 0 -9 96 -9 240 l0 240 -75 0 -75 0 0 -240 c0 -137 -4
-240 -9 -240 -5 0 -40 14 -78 31 -230 104 -476 184 -652 210 l-84 13 7 113 7
113 -77 0 -76 0 4 -158 c5 -224 8 -228 206 -238 77 -5 146 -15 201 -31 82 -23
231 -86 231 -97 0 -3 -175 -6 -390 -6 l-390 0 0 265 0 265 -75 0 c-53 0 -75
-4 -76 -12z"/>
<path d="M3745 3993 c11 -3 25 -9 31 -14 6 -5 43 -20 83 -34 96 -32 177 -77
238 -130 28 -25 58 -45 67 -45 23 0 39 36 25 57 -21 33 -102 92 -182 133 -77
39 -80 40 -180 39 -56 -1 -93 -4 -82 -6z"/>
<path d="M4855 3966 c-78 -37 -191 -121 -201 -149 -6 -20 11 -47 31 -47 6 0
41 23 76 52 78 63 196 119 308 147 46 11 86 23 89 26 3 3 -48 5 -114 5 -115 0
-122 -1 -189 -34z"/>
<path d="M4141 1978 c-36 -142 -58 -206 -101 -293 -52 -104 -108 -178 -225
-296 -52 -52 -95 -97 -95 -100 0 -2 307 -3 682 -1 376 1 694 2 707 2 20 0 10
14 -64 88 -112 111 -198 225 -247 328 -33 72 -108 313 -108 351 0 10 -51 13
-263 13 l-262 0 -24 -92z"/>
<path d="M3520 1148 c-27 -30 -26 -73 5 -103 l24 -25 876 0 876 0 24 25 c30
30 32 64 4 99 l-20 26 -884 0 -884 0 -21 -22z"/>
</g>
</svg>
