<?xml version="1.0" standalone="no"?>
<!DOCTYPE svg PUBLIC "-//W3C//DTD SVG 20010904//EN"
 "http://www.w3.org/TR/2001/REC-SVG-20010904/DTD/svg10.dtd">
<svg version="1.0" xmlns="http://www.w3.org/2000/svg"
 width="280.000000pt" height="340.000000pt" viewBox="0 0 280.000000 340.000000"
 preserveAspectRatio="xMidYMid meet">

<g transform="translate(0.000000,340.000000) scale(0.100000,-0.100000)"
fill="#00e481" stroke="none">
<path d="M1178 3311 c-120 -26 -179 -47 -278 -97 -115 -58 -199 -118 -292
-210 -203 -202 -313 -453 -325 -740 -7 -161 7 -264 53 -404 105 -317 335 -563
642 -686 107 -44 145 -47 140 -12 -2 15 -18 25 -58 37 -142 44 -275 127 -401
248 -148 143 -247 313 -300 518 -20 77 -23 114 -23 250 0 140 4 172 27 257 81
303 277 549 547 687 182 93 341 128 544 118 169 -8 289 -41 439 -119 269 -140
464 -386 544 -685 23 -85 26 -119 27 -258 1 -179 -16 -267 -79 -417 -115 -272
-362 -504 -636 -596 -40 -14 -55 -24 -57 -40 -5 -33 37 -28 143 16 248 103
471 317 581 557 80 175 110 329 101 529 -7 164 -37 289 -105 429 -62 129 -120
210 -218 309 -138 139 -312 240 -504 294 -132 36 -381 44 -512 15z"/>
<path d="M807 2770 c-15 -12 -31 -38 -37 -58 -6 -22 -10 -184 -10 -405 0 -401
2 -418 56 -454 24 -15 54 -18 211 -21 l183 -4 0 -49 0 -49 200 0 200 0 0 50 0
50 163 0 c180 0 227 9 257 47 19 25 20 38 20 440 l0 415 -29 29 -29 29 -580 0
c-568 0 -580 0 -605 -20z m1148 -455 l0 -380 -547 -3 -548 -2 0 378 c0 208 3
382 7 385 3 4 250 6 547 5 l541 -3 0 -380z"/>
<path d="M1007 1693 c-4 -3 -7 -24 -7 -45 l0 -38 410 0 410 0 0 39 c0 26 -5
41 -16 45 -21 8 -789 8 -797 -1z"/>
<path d="M1175 1310 c-27 -30 -15 -51 99 -185 130 -153 123 -153 261 7 107
125 120 152 89 182 -33 34 -60 20 -140 -71 -42 -49 -79 -89 -82 -90 -4 -1 -26
21 -50 50 -108 133 -138 151 -177 107z"/>
<path d="M199 711 c-21 -17 -24 -27 -24 -96 0 -69 3 -79 24 -96 13 -10 33 -19
46 -19 13 0 33 9 46 19 21 17 24 27 24 96 0 69 -3 79 -24 96 -13 10 -33 19
-46 19 -13 0 -33 -9 -46 -19z m75 -27 c8 -20 8 -118 0 -138 -3 -9 -16 -16 -29
-16 -13 0 -26 7 -29 16 -8 20 -8 118 0 138 8 21 50 21 58 0z"/>
<path d="M360 615 c0 -110 1 -115 21 -115 20 0 21 4 17 99 -1 55 0 97 5 94 4
-2 7 -8 7 -13 0 -5 14 -47 31 -94 29 -81 33 -86 60 -86 l29 0 0 115 c0 110 -1
115 -21 115 -19 0 -20 -5 -17 -99 2 -55 0 -97 -4 -94 -5 2 -8 10 -8 18 0 7
-14 50 -31 94 -29 76 -33 81 -60 81 l-29 0 0 -115z"/>
<path d="M580 615 l0 -115 55 0 c48 0 55 2 55 20 0 16 -7 20 -35 20 l-35 0 0
95 c0 88 -1 95 -20 95 -19 0 -20 -7 -20 -115z"/>
<path d="M730 615 c0 -96 3 -115 15 -115 12 0 15 19 15 115 0 96 -3 115 -15
115 -12 0 -15 -19 -15 -115z"/>
<path d="M820 615 c0 -110 1 -115 21 -115 20 0 21 4 17 99 -1 55 0 97 5 94 4
-2 7 -8 7 -13 0 -5 14 -47 31 -94 29 -81 33 -86 60 -86 l29 0 0 115 c0 110 -1
115 -21 115 -19 0 -20 -5 -17 -99 2 -55 0 -97 -4 -94 -5 2 -8 10 -8 18 0 7
-14 50 -31 94 -29 76 -33 81 -60 81 l-29 0 0 -115z"/>
<path d="M1030 615 l0 -115 60 0 c47 0 60 3 60 15 0 11 -11 15 -40 15 l-40 0
0 40 c0 39 1 40 35 40 24 0 35 5 35 15 0 10 -11 15 -35 15 -32 0 -35 2 -35 30
0 28 2 30 40 30 29 0 40 4 40 15 0 12 -13 15 -60 15 l-60 0 0 -115z"/>
<path d="M1280 615 l0 -115 55 0 c48 0 55 2 55 20 0 16 -7 20 -35 20 l-35 0 0
95 c0 88 -1 95 -20 95 -19 0 -20 -7 -20 -115z"/>
<path d="M1420 615 l0 -115 60 0 c47 0 60 3 60 15 0 11 -11 15 -40 15 l-40 0
0 40 c0 39 1 40 35 40 24 0 35 5 35 15 0 10 -11 15 -35 15 -32 0 -35 2 -35 30
0 28 2 30 40 30 29 0 40 4 40 15 0 12 -13 15 -60 15 l-60 0 0 -115z"/>
<path d="M1616 633 c-15 -54 -30 -106 -32 -115 -4 -13 0 -18 15 -18 14 0 21 9
26 31 6 28 10 30 43 27 29 -2 37 -8 42 -28 4 -16 14 -26 27 -28 l22 -3 -25 88
c-13 48 -27 100 -31 116 -4 21 -11 27 -33 27 -26 0 -29 -4 -54 -97z m72 -5
l10 -48 -29 0 c-33 0 -34 3 -17 65 14 52 22 48 36 -17z"/>
<path d="M1790 616 c0 -109 1 -116 20 -116 17 0 20 7 20 51 0 49 1 50 28 47
25 -3 27 -7 30 -50 3 -40 6 -48 23 -48 16 0 19 7 19 45 0 33 -5 48 -19 57 -18
11 -18 13 -4 24 19 13 22 69 5 86 -6 6 -36 13 -67 16 l-55 4 0 -116z m95 49
c0 -25 -4 -30 -27 -33 -26 -3 -28 -1 -28 33 0 34 2 36 28 33 23 -3 27 -8 27
-33z"/>
<path d="M1970 615 c0 -110 1 -115 21 -115 20 0 21 4 17 99 -1 55 0 97 5 94 4
-2 7 -8 7 -13 0 -5 14 -47 31 -94 29 -81 33 -86 60 -86 l29 0 0 115 c0 110 -1
115 -21 115 -19 0 -20 -5 -17 -99 2 -55 0 -97 -4 -94 -5 2 -8 10 -8 18 0 7
-14 50 -31 94 -29 76 -33 81 -60 81 l-29 0 0 -115z"/>
<path d="M2190 615 c0 -96 3 -115 15 -115 12 0 15 19 15 115 0 96 -3 115 -15
115 -12 0 -15 -19 -15 -115z"/>
<path d="M2280 615 c0 -110 1 -115 21 -115 20 0 21 4 17 99 -1 55 0 97 5 94 4
-2 7 -8 7 -13 0 -5 14 -47 31 -94 29 -81 33 -86 60 -86 l29 0 0 115 c0 110 -1
115 -21 115 -19 0 -20 -5 -17 -99 2 -55 0 -97 -4 -94 -5 2 -8 10 -8 18 0 7
-14 50 -31 94 -29 76 -33 81 -60 81 l-29 0 0 -115z"/>
<path d="M2519 711 c-19 -15 -24 -30 -26 -82 -6 -101 29 -140 110 -125 l37 7
0 54 0 55 -35 0 c-24 0 -35 -5 -35 -15 0 -8 7 -15 15 -15 10 0 15 -10 15 -30
0 -25 -4 -30 -23 -30 -13 0 -28 5 -35 12 -12 12 -17 114 -6 142 9 24 55 20 61
-4 5 -20 43 -29 43 -10 0 20 -49 60 -73 60 -14 0 -35 -8 -48 -19z"/>
<path d="M700 338 c0 -18 -3 -70 -7 -115 l-6 -83 27 0 c25 0 26 3 26 49 l0 50
37 3 c30 2 41 9 51 30 28 59 -7 98 -89 98 -37 0 -39 -1 -39 -32z m94 -20 c14
-23 -3 -52 -33 -56 -19 -3 -21 1 -21 38 0 37 2 41 21 38 12 -2 27 -11 33 -20z"/>
<path d="M870 255 l0 -115 55 0 c48 0 55 2 55 20 0 16 -7 20 -35 20 l-35 0 0
95 c0 88 -1 95 -20 95 -19 0 -20 -7 -20 -115z"/>
<path d="M1046 273 c-15 -54 -30 -106 -32 -115 -4 -13 0 -18 15 -18 14 0 21 9
26 31 6 28 10 30 43 27 29 -2 37 -8 42 -28 4 -16 14 -26 27 -28 l22 -3 -25 88
c-13 48 -27 100 -31 116 -4 21 -11 27 -33 27 -26 0 -29 -4 -54 -97z m72 -5
l10 -48 -29 0 c-33 0 -34 3 -17 65 14 52 22 48 36 -17z"/>
<path d="M1190 355 c0 -9 9 -15 25 -15 l25 0 0 -100 c0 -93 1 -100 20 -100 19
0 20 7 20 100 l0 100 25 0 c16 0 25 6 25 15 0 12 -14 15 -70 15 -56 0 -70 -3
-70 -15z"/>
<path d="M1360 255 c0 -108 1 -115 20 -115 18 0 20 7 20 55 l0 55 35 0 c24 0
35 5 35 15 0 10 -11 15 -35 15 -32 0 -35 2 -35 30 0 28 3 30 35 30 24 0 35 5
35 15 0 12 -13 15 -55 15 l-55 0 0 -115z"/>
<path d="M1549 351 c-21 -17 -24 -27 -24 -96 0 -69 3 -79 24 -96 30 -24 62
-24 92 0 21 17 24 27 24 96 0 69 -3 79 -24 96 -13 10 -33 19 -46 19 -13 0 -33
-9 -46 -19z m75 -27 c3 -9 6 -40 6 -69 0 -68 -7 -85 -35 -85 -28 0 -35 17 -35
85 0 68 7 85 35 85 13 0 26 -7 29 -16z"/>
<path d="M1710 256 c0 -109 1 -116 20 -116 17 0 20 7 20 51 0 49 1 50 28 47
25 -3 27 -7 30 -50 3 -40 6 -48 23 -48 16 0 19 7 19 45 0 33 -5 48 -19 57 -18
11 -18 13 -4 24 19 13 22 69 5 86 -6 6 -36 13 -67 16 l-55 4 0 -116z m95 49
c0 -25 -4 -30 -27 -33 -26 -3 -28 -1 -28 33 0 34 2 36 28 33 23 -3 27 -8 27
-33z"/>
<path d="M1890 255 c0 -108 1 -115 20 -115 18 0 20 8 22 108 l3 107 25 -105
c21 -87 29 -105 45 -108 18 -2 23 10 45 110 l25 113 3 -112 c2 -91 5 -113 17
-113 12 0 15 21 15 115 l0 115 -35 0 c-29 0 -35 -4 -36 -22 0 -13 -8 -54 -18
-93 l-17 -70 -13 55 c-32 138 -28 130 -66 130 l-35 0 0 -115z"/>
</g>
</svg>
